# Blender v2.90.1 OBJ File: 'knife.blend'
# www.blender.org
mtllib knife.mtl
o Cube
v 1.437417 5.919397 -0.232785
v 1.000000 -5.919397 -0.136883
v 1.437417 5.919397 0.232785
v 1.000000 -5.919397 0.136883
v -1.139001 5.919397 -0.232785
v -1.000000 -5.919397 -0.136883
v -1.139001 5.919397 0.232785
v -1.000000 -5.919397 0.136883
v 1.437417 6.342171 0.232785
v -1.139001 6.342171 0.232785
v 1.437417 6.342171 -0.232785
v -1.139001 6.342171 -0.232785
v 0.947106 6.549907 0.136883
v -0.947106 6.549907 0.136883
v 0.947106 6.549907 -0.136883
v -0.947106 6.549907 -0.136883
v 1.343579 6.791136 0.136883
v -1.000678 6.775138 0.136883
v 1.296630 6.771387 -0.136883
v -1.000678 6.775138 -0.136883
v -0.039906 13.294254 0.136883
v 0.704099 10.555546 0.136883
v -0.091800 13.276337 -0.136883
v 0.724369 10.407936 0.136883
v -0.991847 10.221584 0.136883
v -0.991847 10.221584 -0.136883
v 0.749960 10.221584 0.136883
v 0.895507 10.203666 -0.136883
v -0.999650 11.944807 0.136883
v 0.513320 11.944807 0.136883
v -0.999650 11.944807 -0.136883
v 0.620807 11.926889 -0.136883
v -1.000226 7.468127 -0.136883
v 1.235033 7.450209 -0.136883
v -1.000226 7.468127 0.136883
v 1.051884 7.459950 0.136883
v -1.005587 13.535588 0.136883
v -0.863282 13.668032 0.136883
v -0.863049 13.668032 -0.136883
v -1.005584 13.534850 -0.136883
v 0.683948 10.702286 0.136883
v 0.663210 10.853298 0.136883
v 0.644221 10.991578 0.136883
v 0.622268 11.151442 0.136883
v 0.603423 11.288674 0.136883
v 0.585225 11.421191 0.136883
v 0.564160 11.574589 0.136883
v 0.549294 11.682838 0.136883
v 0.533139 11.800484 0.136883
v 0.974048 7.668719 0.136883
v 0.957145 7.861277 0.136883
v 0.937709 8.082706 0.136883
v 0.922080 8.260750 0.136883
v 0.909052 8.409169 0.136883
v 0.895555 8.562926 0.136883
v 0.883668 8.698353 0.136883
v 0.869039 8.865010 0.136883
v 0.853878 9.037727 0.136883
v 0.837768 9.221256 0.136883
v 0.818745 9.437963 0.136883
v 0.805484 9.589035 0.136883
v 0.792972 9.731581 0.136883
v 0.778109 9.900896 0.136883
v 0.765477 10.044808 0.136883
v 0.887282 7.598917 0.136883
v 0.850818 7.818011 0.136883
v 0.845062 8.002232 0.136883
v 0.832365 8.211676 0.136883
v 0.833664 8.368151 0.136883
v 0.823186 8.510908 0.136883
v 0.824871 8.659621 0.136883
v 0.807323 8.827213 0.136883
v 0.777592 8.992477 0.136883
v 0.766203 9.165506 0.136883
v 0.754305 9.355822 0.136883
v 0.748546 9.544744 0.136883
v 0.731450 9.707785 0.136883
v 0.707554 9.895970 0.136883
v 0.685608 10.020592 0.136883
v 0.669937 10.138410 0.136883
v 0.666361 10.300562 0.136883
v 0.648810 10.485065 0.136883
v 0.603202 10.601139 0.136883
v 0.580815 10.754511 0.136883
v 0.552283 10.912451 0.136883
v 0.536407 11.046056 0.136883
v 0.508105 11.203505 0.136883
v 0.480138 11.346963 0.136883
v 0.446343 11.491254 0.136883
v 0.443171 11.610847 0.136883
v 0.428345 11.717525 0.136883
v 0.418848 11.848969 0.136883
v 0.866773 10.129589 -0.008096
v 0.883076 9.981001 -0.003257
v 0.878781 9.826291 0.031272
v 0.889951 9.669638 0.044718
v 0.932410 9.511104 0.015127
v 0.943949 9.320593 0.034313
v 0.966687 9.133805 0.033966
v 0.985692 8.950054 0.031526
v 0.999817 8.773920 0.032660
v 1.018195 8.621095 0.028447
v 1.022428 8.458174 0.036993
v 1.025792 8.328918 0.043768
v 1.059829 8.143728 0.028675
v 1.099566 7.942018 0.009974
v 1.114836 7.741297 0.011968
v 1.135337 7.532403 0.010131
v 0.620220 11.884028 -0.030097
v 0.634476 11.762092 -0.021196
v 0.648863 11.656139 -0.016896
v 0.657998 11.510756 0.007221
v 0.682304 11.370742 0.003810
v 0.691544 11.234068 0.025094
v 0.726371 11.094482 0.003382
v 0.741909 10.942981 0.010684
v 0.757568 10.790541 0.017998
v 0.783214 10.642439 0.010639
v 0.814094 10.480760 -0.001394
v 0.835158 10.314553 0.001047
v 0.905772 5.903623 -0.136883
v -0.929142 5.903623 0.136883
v 0.905772 5.903623 0.136883
v -0.929142 5.903623 -0.136883
vt 0.625000 0.500000
vt 0.625000 0.250000
vt 0.625000 0.250000
vt 0.625000 0.500000
vt 0.621895 0.750000
vt 0.625000 0.750000
vt 0.625000 1.000000
vt 0.621895 1.000000
vt 0.621895 0.000000
vt 0.625000 0.000000
vt 0.621895 0.250000
vt 0.125000 0.500000
vt 0.375000 0.500000
vt 0.375000 0.750000
vt 0.125000 0.750000
vt 0.621895 0.500000
vt 0.625000 1.000000
vt 0.625000 0.750000
vt 0.625000 0.750000
vt 0.625000 1.000000
vt 0.625000 0.000000
vt 0.625000 0.500000
vt 0.625000 0.250000
vt 0.625000 0.250000
vt 0.625000 0.500000
vt 0.625000 0.000000
vt 0.625000 0.250000
vt 0.625000 0.000000
vt 0.625000 0.000000
vt 0.625000 0.250000
vt 0.625000 0.750000
vt 0.625000 0.000000
vt 0.625000 1.000000
vt 0.625000 0.500000
vt 0.845844 0.500000
vt 0.845892 0.750000
vt 0.625000 0.750000
vt 0.625000 1.000000
vt 0.625000 0.750000
vt 0.625000 0.970892
vt 0.625000 1.000000
vt 0.625000 0.500000
vt 0.625000 0.279156
vt 0.625000 0.750000
vt 0.625000 0.500000
vt 0.625000 0.500000
vt 0.625000 0.750000
vt 0.625000 0.617584
vt 0.625000 0.750000
vt 0.625000 0.621963
vt 0.625000 0.750000
vt 0.625000 0.653430
vt 0.625000 0.750000
vt 0.625000 0.665643
vt 0.625000 0.750000
vt 0.625000 0.638606
vt 0.625000 0.750000
vt 0.625000 0.656037
vt 0.625000 0.750000
vt 0.625000 0.655687
vt 0.625000 0.750000
vt 0.625000 0.653487
vt 0.625000 0.750000
vt 0.625000 0.654560
vt 0.625000 0.750000
vt 0.625000 0.650734
vt 0.625000 0.750000
vt 0.625000 0.658586
vt 0.625000 0.750000
vt 0.625000 0.664808
vt 0.625000 0.750000
vt 0.625000 0.651040
vt 0.625000 0.750000
vt 0.625000 0.633991
vt 0.625000 0.750000
vt 0.625000 0.635862
vt 0.625000 0.750000
vt 0.625000 0.634235
vt 0.625000 0.250000
vt 0.625000 0.250000
vt 0.625000 1.000000
vt 0.625000 0.773613
vt 0.625000 0.771436
vt 0.625000 0.770236
vt 0.625000 0.769622
vt 0.625000 0.767756
vt 0.625000 0.767546
vt 0.625000 0.765682
vt 0.625000 0.766108
vt 0.625000 0.768178
vt 0.625000 0.767760
vt 0.625000 0.767227
vt 0.625000 0.765893
vt 0.625000 0.766424
vt 0.625000 0.767712
vt 0.625000 0.769511
vt 0.625000 0.770557
vt 0.625000 1.000000
vt 0.625000 0.000000
vt 0.625000 0.000000
vt 0.625000 0.766977
vt 0.625000 0.750000
vt 0.625000 0.765987
vt 0.625000 0.750000
vt 0.625000 0.770375
vt 0.625000 0.750000
vt 0.625000 0.770679
vt 0.625000 0.750000
vt 0.625000 0.771813
vt 0.625000 0.750000
vt 0.625000 0.771566
vt 0.625000 0.750000
vt 0.625000 0.772762
vt 0.625000 0.750000
vt 0.625000 0.774282
vt 0.625000 0.750000
vt 0.625000 0.776844
vt 0.625000 0.750000
vt 0.625000 0.775116
vt 0.625000 0.750000
vt 0.625000 0.775548
vt 0.625000 0.750000
vt 0.625000 0.774734
vt 0.625000 0.597513
vt 0.625000 0.605633
vt 0.625000 0.609553
vt 0.625000 0.631562
vt 0.625000 0.628438
vt 0.625000 0.647857
vt 0.625000 0.628029
vt 0.625000 0.634710
vt 0.625000 0.641400
vt 0.625000 0.634688
vt 0.625000 0.623709
vt 0.625000 0.625949
vt 0.375000 0.250000
vt 0.375000 0.000000
vt 0.375000 1.000000
vn 0.0000 0.0000 -1.0000
vn 0.0000 -0.9867 0.1623
vn -0.0750 -0.9972 0.0000
vn 0.0000 -1.0000 0.0000
vn 0.0297 -0.9996 0.0000
vn 0.0000 -0.9867 -0.1623
vn 0.0000 0.4191 0.9079
vn 0.0000 0.0000 1.0000
vn -1.0000 0.0000 0.0000
vn 1.0000 0.0000 0.0000
vn 0.0000 0.4191 -0.9079
vn 0.3901 0.9208 0.0000
vn -0.7346 0.6785 0.0000
vn -1.0000 -0.0037 0.0000
vn 0.5270 -0.8497 -0.0145
vn -0.9729 -0.2314 0.0000
vn 0.4317 0.8993 -0.0702
vn 0.9035 0.4238 0.0640
vn 0.8528 0.1002 0.5126
vn -1.0000 0.0030 0.0000
vn -1.0000 -0.0045 0.0000
vn -1.0000 0.0007 0.0000
vn 0.9433 0.2473 0.2213
vn 0.9265 0.1408 0.3491
vn 0.5350 -0.6758 0.5071
vn 0.5803 -0.5720 0.5797
vn 0.3253 0.7668 0.5533
vn 0.2332 0.8131 0.5333
vn 0.5007 -0.7381 0.4523
vn 0.2389 0.7972 0.5544
vn 0.4466 -0.6314 0.6340
vn 0.3399 0.6737 0.6562
vn 0.4659 -0.6595 0.5899
vn 0.3320 0.7022 0.6298
vn 0.4978 -0.5572 0.6646
vn 0.3039 0.6664 0.6809
vn 0.5837 -0.4756 0.6581
vn 0.3244 0.6421 0.6946
vn 0.5102 -0.5928 0.6232
vn 0.3462 0.6492 0.6772
vn 0.5574 -0.4649 0.6878
vn 0.3288 0.6494 0.6857
vn 0.5779 -0.4614 0.6731
vn 0.3083 0.6823 0.6629
vn 0.5677 -0.4453 0.6924
vn 0.5491 0.5379 0.6396
vn 0.6085 -0.3287 0.7223
vn 0.5033 0.5328 0.6803
vn 1.0000 0.0080 0.0000
vn -1.0000 0.0060 0.0000
vn 0.5044 -0.4852 0.7143
vn 0.5184 0.5292 0.6717
vn 0.2400 -0.7916 0.5619
vn 0.5759 0.4451 0.6858
vn 0.0552 -0.7900 0.6106
vn 0.5868 0.3049 0.7502
vn 0.2543 -0.6574 0.7094
vn 0.5326 0.3321 0.7785
vn 0.4038 -0.5191 0.7533
vn 0.5593 0.3677 0.7430
vn 0.4048 -0.3176 0.8575
vn 0.4962 0.3078 0.8118
vn 0.3505 -0.4500 0.8214
vn 0.4721 0.3239 0.8199
vn 0.3031 -0.5110 0.8044
vn 0.4790 0.3436 0.8078
vn 0.3035 -0.4955 0.8139
vn 0.5174 0.3066 0.7989
vn 0.3391 -0.5148 0.7874
vn 0.5094 0.3723 0.7758
vn 0.3103 -0.4318 0.8469
vn 0.4932 0.4162 0.7639
vn 0.2836 -0.5213 0.8049
vn 0.4650 0.3828 0.7982
vn 0.2590 -0.4735 0.8418
vn 0.4884 0.3989 0.7761
vn 0.3364 -0.3873 0.8584
vn 0.4832 0.3842 0.7867
vn 0.2227 -0.5473 0.8068
vn 0.4843 0.3998 0.7782
vn 0.3270 -0.4064 0.8532
vn 0.4887 0.5789 0.6527
usemtl Material
s off
f 1/1/1 5/2/1 12/3/1 11/4/1
f 123/5/2 3/6/2 7/7/2 122/8/2
f 122/9/3 7/10/3 5/2/3 124/11/3
f 6/12/4 2/13/4 4/14/4 8/15/4
f 121/16/5 1/1/5 3/6/5 123/5/5
f 124/11/6 5/2/6 1/1/6 121/16/6
f 10/17/7 9/18/7 13/19/7 14/20/7
f 7/7/8 3/6/8 9/18/8 10/17/8
f 5/2/9 7/10/9 10/21/9 12/3/9
f 3/6/10 1/1/10 11/4/10 9/18/10
f 15/22/1 16/23/1 20/24/1 19/25/1
f 11/4/11 12/3/11 16/23/11 15/22/11
f 9/18/12 11/4/12 15/22/12 13/19/12
f 12/3/13 10/21/13 14/26/13 16/23/13
f 31/27/14 29/28/14 37/29/14 40/30/14
f 13/19/15 15/22/15 19/25/15 17/31/15
f 16/23/16 14/26/16 18/32/16 20/24/16
f 14/20/8 13/19/8 17/31/8 18/33/8
f 23/34/17 39/35/17 38/36/17 21/37/17
f 29/38/8 30/39/8 21/37/8 38/40/8 37/41/8
f 32/42/1 31/27/1 40/30/1 39/43/1 23/34/1
f 30/39/18 32/42/18 23/34/18 21/37/18
f 36/44/19 34/45/19 28/46/19 27/47/19 93/48/19 64/49/19 94/50/19 63/51/19 95/52/19 62/53/19 96/54/19 61/55/19 97/56/19 60/57/19 98/58/19 59/59/19 99/60/19 58/61/19 100/62/19 57/63/19 101/64/19 56/65/19 102/66/19 55/67/19 103/68/19 54/69/19 104/70/19 53/71/19 105/72/19 52/73/19 106/74/19 51/75/19 107/76/19 50/77/19 108/78/19
f 34/45/1 33/79/1 26/80/1 28/46/1
f 35/81/8 36/44/8 65/82/8 50/77/8 66/83/8 51/75/8 67/84/8 52/73/8 68/85/8 53/71/8 69/86/8 54/69/8 70/87/8 55/67/8 71/88/8 56/65/8 72/89/8 57/63/8 73/90/8 58/61/8 74/91/8 59/59/8 75/92/8 60/57/8 76/93/8 61/55/8 77/94/8 62/53/8 78/95/8 63/51/8 79/96/8 64/49/8 80/97/8 27/47/8 25/98/8
f 33/79/20 35/99/20 25/100/20 26/80/20
f 28/46/1 26/80/1 31/27/1 32/42/1
f 25/98/8 27/47/8 81/101/8 24/102/8 82/103/8 22/104/8 83/105/8 41/106/8 84/107/8 42/108/8 85/109/8 43/110/8 86/111/8 44/112/8 87/113/8 45/114/8 88/115/8 46/116/8 89/117/8 47/118/8 90/119/8 48/120/8 91/121/8 49/122/8 92/123/8 30/39/8 29/38/8
f 26/80/21 25/100/21 29/28/21 31/27/21
f 20/24/22 18/32/22 35/99/22 33/79/22
f 18/33/8 17/31/8 36/44/8 35/81/8
f 19/25/1 20/24/1 33/79/1 34/45/1
f 17/31/23 19/25/23 34/45/23 36/44/23
f 30/39/24 109/124/24 49/122/24 110/125/24 48/120/24 111/126/24 47/118/24 112/127/24 46/116/24 113/128/24 45/114/24 114/129/24 44/112/24 115/130/24 43/110/24 116/131/24 42/108/24 117/132/24 41/106/24 118/133/24 22/104/24 119/134/24 24/102/24 120/135/24 27/47/24 28/46/24 32/42/24
f 49/122/25 91/121/25 110/125/25
f 30/39/26 92/123/26 109/124/26
f 49/122/27 109/124/27 92/123/27
f 48/120/28 110/125/28 91/121/28
f 48/120/29 90/119/29 111/126/29
f 47/118/30 111/126/30 90/119/30
f 47/118/31 89/117/31 112/127/31
f 46/116/32 112/127/32 89/117/32
f 46/116/33 88/115/33 113/128/33
f 45/114/34 113/128/34 88/115/34
f 45/114/35 87/113/35 114/129/35
f 44/112/36 114/129/36 87/113/36
f 44/112/37 86/111/37 115/130/37
f 43/110/38 115/130/38 86/111/38
f 43/110/39 85/109/39 116/131/39
f 42/108/40 116/131/40 85/109/40
f 42/108/41 84/107/41 117/132/41
f 41/106/42 117/132/42 84/107/42
f 41/106/43 83/105/43 118/133/43
f 22/104/44 118/133/44 83/105/44
f 22/104/45 82/103/45 119/134/45
f 24/102/46 119/134/46 82/103/46
f 24/102/47 81/101/47 120/135/47
f 27/47/48 120/135/48 81/101/48
f 6/136/1 124/11/1 121/16/1 2/13/1
f 2/13/49 121/16/49 123/5/49 4/14/49
f 8/137/50 122/9/50 124/11/50 6/136/50
f 4/14/8 123/5/8 122/8/8 8/138/8
f 27/47/51 80/97/51 93/48/51
f 64/49/52 93/48/52 80/97/52
f 64/49/53 79/96/53 94/50/53
f 63/51/54 94/50/54 79/96/54
f 63/51/55 78/95/55 95/52/55
f 62/53/56 95/52/56 78/95/56
f 62/53/57 77/94/57 96/54/57
f 61/55/58 96/54/58 77/94/58
f 61/55/59 76/93/59 97/56/59
f 60/57/60 97/56/60 76/93/60
f 60/57/61 75/92/61 98/58/61
f 59/59/62 98/58/62 75/92/62
f 59/59/63 74/91/63 99/60/63
f 58/61/64 99/60/64 74/91/64
f 58/61/65 73/90/65 100/62/65
f 57/63/66 100/62/66 73/90/66
f 57/63/67 72/89/67 101/64/67
f 56/65/68 101/64/68 72/89/68
f 56/65/69 71/88/69 102/66/69
f 55/67/70 102/66/70 71/88/70
f 55/67/71 70/87/71 103/68/71
f 54/69/72 103/68/72 70/87/72
f 54/69/73 69/86/73 104/70/73
f 53/71/74 104/70/74 69/86/74
f 53/71/75 68/85/75 105/72/75
f 52/73/76 105/72/76 68/85/76
f 52/73/77 67/84/77 106/74/77
f 51/75/78 106/74/78 67/84/78
f 51/75/79 66/83/79 107/76/79
f 50/77/80 107/76/80 66/83/80
f 50/77/81 65/82/81 108/78/81
f 36/44/82 108/78/82 65/82/82
